<?xml version="1.0" encoding="utf-8"?>
<!-- Generator: Adobe Illustrator 22.1.0, SVG Export Plug-In . SVG Version: 6.00 Build 0)  -->
<svg version="1.1" id="Layer_1" xmlns="http://www.w3.org/2000/svg" xmlns:xlink="http://www.w3.org/1999/xlink" x="0px" y="0px"
	 viewBox="0 0 1024 768" style="enable-background:new 0 0 1024 768;" xml:space="preserve">
<style type="text/css">
	.st0{clip-path:url(#SVGID_2_);}
	.st1{fill:url(#SVGID_3_);}
	.st2{fill:url(#SVGID_4_);}
	.st3{fill:url(#SVGID_5_);}
	.st4{fill:url(#SVGID_6_);}
	.st5{fill:url(#SVGID_7_);}
	.st6{fill:url(#SVGID_8_);}
	.st7{fill:url(#SVGID_9_);}
	.st8{fill:url(#SVGID_10_);}
	.st9{fill:url(#SVGID_11_);}
	.st10{fill:url(#SVGID_12_);}
	.st11{fill:url(#SVGID_13_);}
	.st12{fill:none;}
</style>
<g>
	<defs>
		<rect id="SVGID_1_" width="1024" height="768"/>
	</defs>
	<clipPath id="SVGID_2_">
		<use xlink:href="#SVGID_1_"  style="overflow:visible;"/>
	</clipPath>
	<g class="st0">
		
			<linearGradient id="SVGID_3_" gradientUnits="userSpaceOnUse" x1="213.8056" y1="561.5313" x2="124.6235" y2="501.9593" gradientTransform="matrix(1.2699 -0.2099 0.1631 0.9866 -251.8489 78.3368)">
			<stop  offset="0" style="stop-color:#99ccff"/>
			<stop  offset="1" style="stop-color:#ffccff"/>
		</linearGradient>
		<polygon class="st1" points="89,606.4 -49.3,619 30.8,477.5 148,527 		"/>
		
			<linearGradient id="SVGID_4_" gradientUnits="userSpaceOnUse" x1="1155.8652" y1="742.4869" x2="1319.2507" y2="742.4869" gradientTransform="matrix(-2.1159 8.282802e-02 -4.861591e-02 -1.2419 2901.8325 1569.2554)">
			<stop  offset="0" style="stop-color:#99ccff"/>
			<stop  offset="1" style="stop-color:#ffccff"/>
		</linearGradient>
		<polygon class="st2" points="70.4,655 416.1,641.4 424,844.3 78.3,857.9 		"/>
		
			<linearGradient id="SVGID_5_" gradientUnits="userSpaceOnUse" x1="1262.0248" y1="105.1767" x2="999.9337" y2="-46.1416" gradientTransform="matrix(-1 0 0 -1 1229.6677 725.6728)">
			<stop  offset="0" style="stop-color:#99ccff"/>
			<stop  offset="1" style="stop-color:#ffccff"/>
		</linearGradient>
		<circle class="st3" cx="98.7" cy="696.2" r="151.3"/>
		
			<linearGradient id="SVGID_6_" gradientUnits="userSpaceOnUse" x1="1198.9384" y1="231.8192" x2="946.8146" y2="231.8192" gradientTransform="matrix(-0.5131 -0.5131 0.7071 -0.7071 551.8975 1303.9043)">
			<stop  offset="0" style="stop-color:#99ccff"/>
			<stop  offset="1" style="stop-color:#ffccff"/>
		</linearGradient>
		<polygon class="st4" points="268,562 229.9,654.3 137.7,692 83.3,637.6 77.3,548.2 213.2,507.6 		"/>
		<linearGradient id="SVGID_7_" gradientUnits="userSpaceOnUse" x1="525.8113" y1="761.1401" x2="525.8113" y2="509.3354">
			<stop  offset="0" style="stop-color:#99ccff"/>
			<stop  offset="1" style="stop-color:#ffccff"/>
		</linearGradient>
		<circle class="st5" cx="525.8" cy="635.2" r="125.9"/>
		
			<linearGradient id="SVGID_8_" gradientUnits="userSpaceOnUse" x1="599.4267" y1="984.1086" x2="319.8862" y2="822.7158" gradientTransform="matrix(0.8876 -0.4606 0.4606 0.8876 -265.2496 132.5552)">
			<stop  offset="0" style="stop-color:#99ccff"/>
			<stop  offset="1" style="stop-color:#ffccff"/>
		</linearGradient>
		<polygon class="st6" points="718.5,766.1 508.8,875 399.9,665.3 601.7,570 		"/>
		
			<linearGradient id="SVGID_9_" gradientUnits="userSpaceOnUse" x1="280.8817" y1="832.4128" x2="494.4516" y2="832.4128" gradientTransform="matrix(1.1424 -0.5929 0.4606 0.8876 -381.674 192.9779)">
			<stop  offset="0" style="stop-color:#99ccff"/>
			<stop  offset="1" style="stop-color:#ffccff"/>
		</linearGradient>
		<polygon class="st7" points="525.8,761.1 357.9,833.3 400.4,623.6 544.9,596.8 		"/>
		
			<linearGradient id="SVGID_10_" gradientUnits="userSpaceOnUse" x1="424.7521" y1="303.3406" x2="198.5083" y2="172.7187" gradientTransform="matrix(-1 0 0 -1 1229.6677 725.6728)">
			<stop  offset="0" style="stop-color:#99ccff"/>
			<stop  offset="1" style="stop-color:#ffccff"/>
		</linearGradient>
		<circle class="st8" cx="918" cy="487.6" r="130.6"/>
		
			<linearGradient id="SVGID_11_" gradientUnits="userSpaceOnUse" x1="573.722" y1="249.5313" x2="248.4809" y2="61.7533" gradientTransform="matrix(-1 0 0 -1 1229.6677 725.6728)">
			<stop  offset="0" style="stop-color:#99ccff"/>
			<stop  offset="1" style="stop-color:#ffccff"/>
		</linearGradient>
		<polygon class="st9" points="927,382.3 1035.4,570 927,757.8 710.2,757.8 601.7,570 710.2,382.3 		"/>
		
			<linearGradient id="SVGID_12_" gradientUnits="userSpaceOnUse" x1="3806.8167" y1="-3053.1528" x2="3611.9263" y2="-2715.5928" gradientTransform="matrix(-4.489700e-11 1 -1 -4.489700e-11 -2018.2935 -3036.8008)">
			<stop  offset="0" style="stop-color:#99ccff"/>
			<stop  offset="1" style="stop-color:#ffccff"/>
		</linearGradient>
		<polygon class="st10" points="697.3,575.1 866.1,477.7 1034.9,575.1 1034.9,770 866.1,867.5 697.3,770 		"/>
		
			<linearGradient id="SVGID_13_" gradientUnits="userSpaceOnUse" x1="1121.4395" y1="72.3632" x2="904.6677" y2="72.3632" gradientTransform="matrix(-1 0 0 -1 1229.6677 725.6728)">
			<stop  offset="0" style="stop-color:#99ccff"/>
			<stop  offset="1" style="stop-color:#ffccff"/>
		</linearGradient>
		<polygon class="st11" points="268,562 325,645 267.4,745.2 161.3,745.2 108.2,653.3 161.3,561.4 		"/>
		<rect class="st12" width="1024" height="768"/>
	</g>
</g>
</svg>
