<?xml version="1.0" encoding="utf-8"?>
<!-- Generator: Adobe Illustrator 19.1.0, SVG Export Plug-In . SVG Version: 6.00 Build 0)  -->
<svg version="1.1" id="Layer_1" xmlns="http://www.w3.org/2000/svg" xmlns:xlink="http://www.w3.org/1999/xlink" x="0px" y="0px"
	 viewBox="0 0 1024 768" style="enable-background:new 0 0 1024 768;" xml:space="preserve">
<style type="text/css">
	.st0{fill:url(#SVGID_1_);}
	.st1{fill:url(#SVGID_2_);}
	.st2{fill:url(#SVGID_3_);}
	.st3{fill:url(#SVGID_4_);}
	.st4{fill:url(#SVGID_5_);}
	.st5{fill:url(#SVGID_6_);}
	.st6{fill:url(#SVGID_7_);}
	.st7{fill:url(#SVGID_8_);}
	.st8{fill:url(#SVGID_9_);}
	.st9{fill:url(#SVGID_10_);}
	.st10{fill:url(#SVGID_11_);}
	.st11{fill:none;}
	.st12{fill:#F04E31;}
	.st13{fill:#FBC100;}
	.st14{fill:#5D5D5D;}
	.st15{fill:#0EBAB6;}
	.st16{fill:none;stroke:#FBC100;stroke-width:5.6693;stroke-miterlimit:10;}
	.st17{fill:none;stroke:#560E4D;stroke-width:5.6693;stroke-miterlimit:10;}
	.st18{fill:#560E4D;}
	.st19{fill:none;stroke:#5D5D5D;stroke-width:5.6693;stroke-miterlimit:10;}
	.st20{fill:#FFFFFF;}
	.st21{clip-path:url(#SVGID_13_);}
	.st22{fill:#404040;}
</style>
<rect y="557.5" class="st12" width="1024" height="210.5"/>
<circle class="st13" cx="878.7" cy="569.8" r="38.5"/>
<circle class="st14" cx="228.2" cy="666.7" r="26.4"/>
<circle class="st12" cx="439.7" cy="696" r="55.7"/>
<circle class="st15" cx="241.9" cy="705.9" r="26.4"/>
<circle class="st15" cx="88.1" cy="545.4" r="35.1"/>
<circle class="st16" cx="445.1" cy="585.2" r="41.1"/>
<circle class="st17" cx="35.6" cy="694" r="17.9"/>
<circle class="st16" cx="104.3" cy="598.9" r="48.3"/>
<circle class="st16" cx="930.6" cy="555.2" r="53"/>
<circle class="st18" cx="672.5" cy="590.7" r="49.5"/>
<circle class="st19" cx="728.7" cy="768" r="55.7"/>
<circle class="st17" cx="201.8" cy="698.5" r="31.7"/>
<circle class="st15" cx="554.4" cy="626.3" r="30.2"/>
<circle class="st14" cx="595.3" cy="694.4" r="41.1"/>
<path class="st18" d="M444.1,681.7c0,2.1,0,4.1,0,6.2c0,0.4,0.1,0.5,0.5,0.6c2.8,0.5,5.3,1.6,7.6,3.3c2.8,2.1,4.5,4.8,5.2,8.2
	c0.2,1,0.3,2,0.5,3.1c-0.3,0-0.4,0-0.6,0c-2.8,0-5.6,0-8.4,0c-0.4,0-0.5-0.1-0.6-0.5c-0.2-2.2-1.2-3.9-3.2-5.1
	c-0.3-0.2-0.6-0.3-0.9-0.5c0,4,0,7.9,0,11.9c0.3,0.1,0.7,0.2,1,0.2c2.1,0.4,4.2,1,6.3,1.8c2.5,1,4.6,2.4,6.1,4.8
	c0.7,1.2,1.2,2.5,1.4,3.9c0.5,2.7,0.3,5.4-0.6,8c-0.7,1.9-1.8,3.6-3.3,5c-2.4,2.3-5.3,3.6-8.5,4.3c-0.7,0.1-1.3,0.3-2,0.4
	c-0.3,0-0.4,0.2-0.4,0.5c0,1.3,0,2.6,0,3.9c0,0.2,0,0.3,0,0.5c-2.9,0-5.8,0-8.7,0c0-0.3,0-0.6,0-0.9c0-1.2,0-2.3,0-3.5
	c0-0.4-0.1-0.5-0.5-0.6c-1.6-0.4-3.2-0.7-4.8-1.2c-3.2-1.1-5.9-3.1-7.7-6c-1.1-1.7-1.7-3.5-1.9-5.5c-0.1-0.7-0.1-1.3-0.2-2
	c0-0.3,0.1-0.4,0.4-0.4c2.8,0,5.7,0,8.5,0c0.3,0,0.4,0.1,0.5,0.4c0.2,1.5,0.7,2.9,1.7,4.1c1,1.3,2.4,2,4,2.5c0-0.2,0-0.4,0-0.5
	c0-3.9,0-7.8,0-11.7c0-0.4-0.1-0.6-0.5-0.7c-1.8-0.5-3.5-0.9-5.2-1.5c-2.7-0.9-5-2.2-6.6-4.6c-1-1.5-1.6-3.1-1.8-4.8
	c-0.3-1.7-0.3-3.4,0-5c0.4-2.3,1.3-4.4,2.7-6.2c2.1-2.7,5-4.3,8.3-5.2c1-0.3,2.1-0.4,3.2-0.6c0-2.1,0-4.2,0-6.3
	C438.3,681.7,441.2,681.7,444.1,681.7z M444.1,729.1c0.2,0,0.4-0.1,0.6-0.1c2.1-0.6,4-1.5,4.7-3.7c0.6-1.7,0.5-3.3-0.7-4.7
	c-0.6-0.7-1.5-1.2-2.3-1.5c-0.7-0.3-1.5-0.5-2.2-0.8C444.1,721.8,444.1,725.4,444.1,729.1z M435.3,696.4c-0.3,0.1-0.6,0.1-0.8,0.2
	c-0.6,0.2-1.2,0.5-1.7,0.7c-2.2,1.1-3,3.2-2.6,5.6c0.2,0.9,0.7,1.7,1.4,2.2c1.1,0.8,2.4,1.2,3.7,1.6
	C435.3,703.2,435.3,699.8,435.3,696.4z"/>
<path class="st13" d="M785.3,592.5c0,1.8,0,3.5,0,5.3c0,0.3,0.1,0.4,0.4,0.5c2.4,0.5,4.5,1.4,6.5,2.8c2.4,1.8,3.9,4.1,4.4,7
	c0.2,0.9,0.3,1.7,0.4,2.6c-0.2,0-0.4,0-0.5,0c-2.4,0-4.8,0-7.2,0c-0.3,0-0.4-0.1-0.5-0.4c-0.2-1.9-1.1-3.4-2.7-4.3
	c-0.2-0.1-0.5-0.3-0.8-0.5c0,3.4,0,6.8,0,10.1c0.3,0.1,0.6,0.2,0.9,0.2c1.8,0.4,3.6,0.9,5.4,1.6c2.1,0.8,4,2.1,5.2,4.1
	c0.6,1,1,2.1,1.2,3.3c0.4,2.3,0.3,4.6-0.5,6.9c-0.6,1.6-1.6,3.1-2.8,4.3c-2,2-4.6,3-7.3,3.7c-0.6,0.1-1.1,0.2-1.7,0.3
	c-0.3,0-0.3,0.2-0.3,0.4c0,1.1,0,2.2,0,3.3c0,0.1,0,0.3,0,0.4c-2.5,0-4.9,0-7.4,0c0-0.3,0-0.5,0-0.8c0-1,0-2,0-3
	c0-0.3-0.1-0.5-0.4-0.5c-1.4-0.3-2.8-0.6-4.1-1.1c-2.8-1-5-2.6-6.6-5.1c-0.9-1.4-1.4-3-1.6-4.7c-0.1-0.6-0.1-1.1-0.1-1.7
	c0-0.3,0.1-0.4,0.3-0.4c2.4,0,4.8,0,7.3,0c0.3,0,0.4,0.1,0.4,0.4c0.2,1.3,0.6,2.5,1.4,3.5c0.9,1.1,2.1,1.7,3.5,2.1
	c0-0.2,0-0.3,0-0.5c0-3.3,0-6.6,0-10c0-0.3-0.1-0.5-0.4-0.6c-1.5-0.4-3-0.8-4.5-1.3c-2.3-0.7-4.3-1.9-5.6-3.9
	c-0.8-1.2-1.3-2.6-1.6-4.1c-0.2-1.4-0.2-2.9,0-4.3c0.3-2,1.1-3.8,2.3-5.3c1.8-2.3,4.3-3.7,7.1-4.4c0.9-0.2,1.8-0.4,2.7-0.5
	c0-1.8,0-3.6,0-5.4C780.3,592.5,782.8,592.5,785.3,592.5z M785.3,632.9c0.2,0,0.4,0,0.5-0.1c1.8-0.5,3.4-1.3,4-3.2
	c0.5-1.4,0.4-2.8-0.6-4c-0.5-0.6-1.3-1-2-1.3c-0.6-0.3-1.3-0.5-1.9-0.7C785.3,626.7,785.3,629.8,785.3,632.9z M777.8,605
	c-0.3,0.1-0.5,0.1-0.7,0.2c-0.5,0.2-1,0.4-1.5,0.6c-1.9,1-2.6,2.7-2.2,4.7c0.1,0.8,0.6,1.4,1.2,1.9c0.9,0.7,2,1.1,3.2,1.4
	C777.8,610.8,777.8,607.9,777.8,605z"/>
<path class="st15" d="M85.4,751.8c-0.6,0-1.2,0-1.8,0c-0.1,0-0.2,0-0.3,0c-1.9-0.2-3.8-0.6-5.5-1.5c-1.8-0.9-3.3-2.3-4.5-4
	c-1.1-1.5-1.7-3.2-2.1-5c0-0.2-0.1-0.2-0.3-0.2c-0.8,0-1.6,0-2.4,0c-0.2,0-0.2,0-0.2-0.2c0-0.9,0-1.8,0-2.7c0-0.2,0-0.2,0.2-0.2
	c0.6,0,1.3,0,1.9,0c0.1,0,0.2,0,0.3,0c0-0.7,0-1.4,0-2.1c-0.8,0-1.6,0-2.4,0c0-1.1,0-2.1,0-3.1c0.1,0,0.2,0,0.3,0c0.8,0,1.6,0,2.4,0
	c0.2,0,0.3-0.1,0.4-0.3c0.2-1,0.6-1.9,1-2.8c0.9-1.9,2.2-3.4,3.8-4.7c1.9-1.5,4-2.3,6.3-2.6c0.4-0.1,0.7-0.1,1.1-0.1
	c0.6,0,1.3,0,1.9,0c0.1,0,0.2,0,0.3,0c1.8,0.1,3.5,0.5,5.2,1.2c0.2,0.1,0.2,0.1,0.2,0.3c-0.3,1.2-0.6,2.5-0.9,3.7
	c-0.1,0.3-0.2,0.7-0.3,1.1c-0.1,0-0.2-0.1-0.3-0.1c-1-0.4-2-0.7-3.1-0.8c-1.6-0.2-3.2-0.1-4.8,0.6c-1,0.5-1.8,1.2-2.5,2.1
	c-0.5,0.7-0.8,1.4-1,2.2c0,0.1,0,0.2-0.1,0.3c3.7,0,7.3,0,11,0c0,1,0,2.1,0,3.1c-3.9,0-7.8,0-11.7,0c0,0.7,0,1.4,0,2.1
	c3.9,0,7.8,0,11.7,0c0,1.1,0,2.1,0,3.1c-3.7,0-7.4,0-11.1,0c0.2,0.6,0.4,1.1,0.6,1.6c0.3,0.8,0.9,1.5,1.5,2.1
	c0.9,0.8,2.1,1.3,3.3,1.5c2,0.4,3.9,0.1,5.8-0.5c0.3-0.1,0.7-0.3,1-0.4c0.1,0.5,0.2,1,0.3,1.5c0.2,1,0.5,2.1,0.7,3.1
	c0,0.1,0.1,0.3-0.1,0.3c-1.3,0.7-2.7,1.1-4.2,1.4C86.6,751.6,86,751.7,85.4,751.8z"/>
<path class="st15" d="M922.9,724.3c-0.9,0-1.8,0-2.7,0c-0.1,0-0.3-0.1-0.4-0.1c-3-0.2-5.9-1-8.6-2.4c-2.8-1.5-5.1-3.6-6.9-6.2
	c-1.7-2.4-2.7-5-3.2-7.8c0-0.3-0.1-0.3-0.4-0.3c-1.3,0-2.5,0-3.8,0c-0.3,0-0.3-0.1-0.3-0.3c0-1.4,0-2.8,0-4.2c0-0.2,0.1-0.3,0.3-0.3
	c1,0,2,0,3,0c0.1,0,0.3,0,0.4,0c0-1.1,0-2.1,0-3.2c-1.2,0-2.5,0-3.8,0c0-1.6,0-3.2,0-4.9c0.2,0,0.3,0,0.4,0c1.2,0,2.5,0,3.7,0
	c0.3,0,0.5-0.1,0.6-0.4c0.3-1.5,0.9-3,1.6-4.4c1.4-2.9,3.4-5.3,5.9-7.3c2.9-2.3,6.2-3.6,9.8-4.1c0.6-0.1,1.2-0.2,1.7-0.2
	c1,0,2,0,3,0c0.1,0,0.3,0.1,0.4,0.1c2.8,0.2,5.5,0.8,8.1,1.9c0.3,0.1,0.3,0.2,0.2,0.5c-0.5,1.9-0.9,3.9-1.4,5.8
	c-0.1,0.5-0.3,1.1-0.4,1.7c-0.2-0.1-0.3-0.1-0.5-0.1c-1.6-0.6-3.1-1-4.8-1.3c-2.6-0.4-5.1-0.2-7.4,0.9c-1.6,0.7-2.8,1.8-3.8,3.2
	c-0.8,1-1.3,2.2-1.6,3.5c0,0.1-0.1,0.3-0.1,0.5c5.7,0,11.4,0,17.1,0c0,1.6,0,3.2,0,4.9c-6.1,0-12.1,0-18.2,0c0,1.1,0,2.1,0,3.2
	c6.1,0,12.1,0,18.2,0c0,1.6,0,3.2,0,4.9c-5.7,0-11.5,0-17.3,0c0.3,0.9,0.6,1.7,0.9,2.5c0.5,1.3,1.3,2.4,2.4,3.2
	c1.5,1.2,3.2,2,5.1,2.3c3.1,0.6,6.1,0.2,9-0.9c0.5-0.2,1.1-0.4,1.6-0.6c0.2,0.8,0.3,1.6,0.5,2.4c0.4,1.6,0.7,3.2,1.1,4.8
	c0,0.2,0.1,0.4-0.1,0.5c-2,1-4.2,1.7-6.5,2.1C924.7,724.1,923.8,724.2,922.9,724.3z"/>
<path class="st18" d="M334.6,653c0.7,0.3,1.3,0.7,1.7,1.3c0.4,0.5,0.7,1,0.9,1.6c0.2,0.6,0.3,1.2,0.3,2c0,0.9-0.2,1.8-0.7,2.6
	c-0.4,0.9-1.2,1.5-2.2,1.8c0.9,0.3,1.5,0.8,1.8,1.5c0.4,0.6,0.5,1.6,0.5,2.9v1.3c0,0.9,0,1.4,0.1,1.7c0.1,0.5,0.3,0.8,0.7,1.1v0.5
	h-4.3c-0.1-0.4-0.2-0.7-0.3-1c-0.1-0.5-0.2-1.1-0.2-1.6l0-1.7c0-1.2-0.2-2-0.6-2.4c-0.4-0.4-1.1-0.6-2.2-0.6h-3.8v7.3h-3.8v-18.7
	h8.9C333,652.5,334,652.7,334.6,653z M326.6,655.7v5h4.2c0.8,0,1.5-0.1,1.9-0.3c0.7-0.4,1.1-1.1,1.1-2.1c0-1.1-0.4-1.9-1.1-2.3
	c-0.4-0.2-1-0.3-1.8-0.3H326.6z"/>
<path class="st13" d="M318.6,586c1.1,0.5,2,1.1,2.7,2c0.6,0.7,1.1,1.6,1.5,2.4c0.4,0.9,0.5,1.9,0.5,3.1c0,1.4-0.3,2.7-1,4.1
	c-0.7,1.3-1.8,2.3-3.5,2.8c1.3,0.5,2.3,1.3,2.9,2.3c0.6,1,0.8,2.5,0.8,4.5v2c0,1.3,0.1,2.2,0.2,2.7c0.2,0.8,0.5,1.3,1.1,1.7v0.7
	h-6.7c-0.2-0.6-0.3-1.2-0.4-1.6c-0.2-0.8-0.2-1.7-0.3-2.5l0-2.7c0-1.9-0.3-3.1-1-3.7c-0.6-0.6-1.8-0.9-3.5-0.9H306v11.4h-5.9v-29.1
	H314C316,585.3,317.5,585.6,318.6,586z M306,590.3v7.8h6.5c1.3,0,2.3-0.2,2.9-0.5c1.1-0.6,1.7-1.6,1.7-3.3c0-1.8-0.6-2.9-1.7-3.6
	c-0.6-0.3-1.6-0.5-2.8-0.5H306z"/>
<path class="st18" d="M966,767.7l58,0.3l0-49.1c-2.8-0.5-5.6-0.7-8.5-0.7C988.1,718.2,966,740.4,966,767.7"/>
</svg>
