<?xml version="1.0" encoding="utf-8"?>
<!-- Generator: Adobe Illustrator 19.1.0, SVG Export Plug-In . SVG Version: 6.00 Build 0)  -->
<svg version="1.1" id="Layer_1" xmlns="http://www.w3.org/2000/svg" xmlns:xlink="http://www.w3.org/1999/xlink" x="0px" y="0px"
	 viewBox="0 0 221.8 95.3" style="enable-background:new 0 0 221.8 95.3;" xml:space="preserve">
<style type="text/css">
	.st0{fill:#F05030;}
	.st1{fill:#F9C114;}
	.st2{fill:#56164E;}
	.st3{fill:#10BBB6;}
	.st4{fill:#5E5E5E;}
</style>
<g>
	<path class="st0" d="M64.2,59.3H38.8c0.4,2.8,1.6,5,3.7,6.4c2.1,1.5,4.6,2.2,7.5,2.2c1.8,0,3.3-0.3,4.6-0.8
		c1.3-0.6,2.8-1.4,4.7-2.4c1.9-1,3.3-1.6,4.1-1.6c0.8,0,1.6,0.2,2.4,0.7c0.8,0.5,1.4,1.1,1.8,1.9c0.5,0.8,0.7,1.6,0.7,2.5
		c0,1.2-0.6,2.5-1.7,3.7c-1.1,1.2-2.7,2.3-4.6,3.3c-1.9,1-4,1.7-6.4,2.3c-2.4,0.6-4.6,0.9-6.8,0.9c-4.3,0-8.2-1-11.6-3
		c-3.4-2-6.1-4.7-7.9-8.2c-1.9-3.5-2.8-7.4-2.8-11.8c0-3,0.5-5.8,1.6-8.6c1.1-2.8,2.5-5.3,4.4-7.5c1.9-2.2,4.2-3.9,6.8-5.1
		c2.7-1.2,5.5-1.8,8.5-1.8c3.1,0,6,0.6,8.7,1.9c2.7,1.3,5,3,6.8,5.1c1.9,2.1,3.3,4.4,4.4,7c1.1,2.6,1.6,5.1,1.6,7.7
		C69.4,57.6,67.7,59.3,64.2,59.3z M38.5,51.4h19c-0.3-2.7-1.3-4.9-3-6.6c-1.7-1.7-3.8-2.5-6.5-2.5c-2.6,0-4.7,0.8-6.4,2.5
		C39.9,46.5,38.9,48.7,38.5,51.4z"/>
	<path class="st1" d="M105.2,48.8v23.1c0,1.8-0.3,3.3-0.8,4.4c-0.5,1.1-1.8,1.7-3.7,1.7c-1.3,0-2.2-0.3-2.9-1
		c-0.7-0.7-1.2-1.6-1.5-3c-2.5,2.9-5.4,4.4-8.9,4.4c-2.9,0-5.5-0.8-7.9-2.3c-2.4-1.5-4.2-3.7-5.6-6.4c-1.3-2.7-2-5.8-2-9.3
		c0-3.3,0.7-6.4,2.1-9.1c1.4-2.8,3.2-5,5.6-6.6c2.4-1.6,5-2.4,7.8-2.4c1.8,0,3.4,0.4,5,1.1c1.6,0.7,2.9,1.8,3.9,3.2
		c0.1-1.1,0.6-2.1,1.5-2.8c0.9-0.7,1.9-1.1,3-1.1c2,0,3.2,0.6,3.7,1.7C105,45.5,105.2,47,105.2,48.8z M81.3,60.4
		c0,1.6,0.3,3.1,0.8,4.6c0.6,1.4,1.4,2.6,2.5,3.5c1.1,0.9,2.5,1.3,4,1.3c2.3,0,4.1-0.9,5.3-2.8c1.3-1.9,1.9-4.1,1.9-6.6
		c0-1.6-0.3-3.1-0.8-4.6c-0.5-1.5-1.4-2.7-2.5-3.6c-1.1-0.9-2.4-1.4-3.9-1.4c-1.6,0-2.9,0.5-4,1.4c-1.1,0.9-2,2.1-2.5,3.6
		C81.5,57.3,81.3,58.8,81.3,60.4z"/>
	<path class="st2" d="M142.1,41.9c0,1.4-0.5,2.6-1.4,3.7c-0.9,1.1-2.1,1.6-3.5,1.6c-0.6,0-1.8-0.4-3.5-1.2c-1.7-0.8-3.1-1.4-4-1.7
		c-0.9-0.4-2-0.6-3.2-0.6c-1.2,0-2.1,0.3-2.9,0.8c-0.8,0.6-1.2,1.4-1.2,2.5c0,1.2,1.2,2.3,3.6,3.3c2.4,1,4.9,2.1,7.5,3.2
		c2.7,1.1,4.9,2.6,6.8,4.4c1.9,1.8,2.8,4.3,2.8,7.4c0,2.7-0.7,5.1-2.1,7.2c-1.4,2.1-3.4,3.8-6,5c-2.6,1.2-5.6,1.8-8.9,1.8
		c-2.3,0-4.8-0.4-7.4-1.2c-2.6-0.8-4.8-1.9-6.6-3.4c-1.8-1.4-2.7-3-2.7-4.6c0-1.1,0.5-2.2,1.4-3.5c1-1.2,2.2-1.8,3.7-1.8
		c1.1,0,2,0.2,2.8,0.5c0.8,0.3,1.8,0.9,3.1,1.6c1.2,0.7,2.3,1.2,3.2,1.5c0.9,0.3,2,0.5,3.3,0.5c1.8,0,3-0.3,3.7-0.8
		c0.7-0.6,1-1.4,1-2.6c0-1.2-1.1-2.2-3.4-3.2c-2.3-1-4.8-2.1-7.6-3.2c-2.7-1.1-5.1-2.6-6.9-4.5c-1.9-1.9-2.8-4.3-2.8-7.4
		c0-2.7,0.7-5.1,2.1-7.2c1.4-2.1,3.3-3.7,5.7-4.9c2.5-1.2,5.2-1.8,8.4-1.8c2.2,0,4.4,0.3,6.7,1c2.3,0.6,4.2,1.6,5.8,2.9
		C141.3,38.6,142.1,40.1,142.1,41.9z"/>
	<path class="st3" d="M177.4,41.9c0,1.4-0.5,2.6-1.4,3.7c-0.9,1.1-2.1,1.6-3.5,1.6c-0.6,0-1.8-0.4-3.5-1.2c-1.7-0.8-3.1-1.4-4-1.7
		c-0.9-0.4-2-0.6-3.2-0.6c-1.2,0-2.1,0.3-2.9,0.8c-0.8,0.6-1.2,1.4-1.2,2.5c0,1.2,1.2,2.3,3.6,3.3c2.4,1,4.9,2.1,7.5,3.2
		c2.7,1.1,4.9,2.6,6.8,4.4c1.9,1.8,2.8,4.3,2.8,7.4c0,2.7-0.7,5.1-2.1,7.2c-1.4,2.1-3.4,3.8-6,5c-2.6,1.2-5.6,1.8-8.9,1.8
		c-2.3,0-4.8-0.4-7.4-1.2c-2.6-0.8-4.8-1.9-6.6-3.4c-1.8-1.4-2.7-3-2.7-4.6c0-1.1,0.5-2.2,1.4-3.5c1-1.2,2.2-1.8,3.7-1.8
		c1.1,0,2,0.2,2.8,0.5c0.8,0.3,1.8,0.9,3.1,1.6c1.2,0.7,2.3,1.2,3.2,1.5c0.9,0.3,2,0.5,3.3,0.5c1.8,0,3-0.3,3.7-0.8
		c0.7-0.6,1-1.4,1-2.6c0-1.2-1.1-2.2-3.4-3.2c-2.3-1-4.8-2.1-7.6-3.2s-5.1-2.6-6.9-4.5s-2.8-4.3-2.8-7.4c0-2.7,0.7-5.1,2.1-7.2
		c1.4-2.1,3.3-3.7,5.7-4.9c2.5-1.2,5.2-1.8,8.4-1.8c2.2,0,4.4,0.3,6.7,1c2.3,0.6,4.2,1.6,5.8,2.9C176.6,38.6,177.4,40.1,177.4,41.9z
		"/>
	<path class="st4" d="M188.4,16c1.2,0,2.3,0.3,3.3,0.9c1,0.6,1.8,1.4,2.5,2.4c0.6,1,0.9,2.1,0.9,3.2c0,1.9-0.7,3.5-2,4.8
		c-1.3,1.4-2.9,2-4.7,2c-1.8,0-3.3-0.7-4.7-2.1c-1.4-1.4-2-3-2-4.8c0-1.7,0.7-3.2,2-4.5C185.1,16.6,186.7,16,188.4,16z M182.5,72.2
		V40.5c0-2,0.5-3.6,1.6-4.8c1.1-1.2,2.5-1.8,4.3-1.8c1.2,0,2.2,0.3,3.1,0.8c0.9,0.6,1.6,1.3,2.1,2.3c0.5,1,0.8,2.2,0.8,3.5v31.8
		c0,1.3-0.3,2.4-0.8,3.5c-0.5,1-1.2,1.8-2.1,2.3c-0.9,0.6-1.9,0.8-3.1,0.8c-1.8,0-3.2-0.6-4.3-1.8C183,75.8,182.5,74.2,182.5,72.2z"
		/>
</g>
</svg>
